<?xml version="1.0" standalone="no"?><!DOCTYPE svg PUBLIC "-//W3C//DTD SVG 1.1//EN" "http://www.w3.org/Graphics/SVG/1.1/DTD/svg11.dtd"><svg t="1571814502110" class="icon" viewBox="0 0 1024 1024" version="1.1" xmlns="http://www.w3.org/2000/svg" p-id="9716" width="100" height="100" xmlns:xlink="http://www.w3.org/1999/xlink"><defs><style type="text/css"></style></defs><path d="M610.7 1008.1H200c-86.4 0-156.7-70.3-156.7-156.7V167.7C43.3 81.3 113.6 11 200 11h615.3C901.7 11 972 81.3 972 167.7v362h-40v-362C932 103.4 879.6 51 815.3 51H200c-64.4 0-116.7 52.4-116.7 116.7v683.6C83.3 915.7 135.7 968 200 968h410.7v40.1z" fill="#ffffff" p-id="9717"></path><path d="M787.8 984.4c-7.5 8.1-20.2 8.6-28.3 1.1L627.3 863.3c-8.1-7.5-8.6-20.2-1.1-28.3 7.5-8.1 20.2-8.6 28.3-1.1l132.2 122.2c8.1 7.5 8.6 20.2 1.1 28.3z" fill="#ffffff" p-id="9718"></path><path d="M968.5 651.7L805.1 972.5c-5 9.8-17.1 13.7-26.9 8.7-9.8-5-13.7-17.1-8.7-26.9l163.4-320.8c5-9.8 17.1-13.7 26.9-8.7 9.8 5 13.7 17.1 8.7 26.9zM795 333.8H229c-9.4 0-17-7.7-17-17v-5.9c0-9.4 7.7-17 17-17h566c9.4 0 17 7.7 17 17v5.9c0 9.3-7.7 17-17 17zM795 532H229c-9.4 0-17-7.7-17-17v-6c0-9.4 7.7-17 17-17h566c9.4 0 17 7.7 17 17v5.9c0 9.4-7.7 17.1-17 17.1zM595 715.8H229c-9.4 0-17-7.7-17-17v-5.9c0-9.4 7.7-17 17-17h366c9.4 0 17 7.7 17 17v5.9c0 9.3-7.7 17-17 17z" fill="#ffffff" p-id="9719"></path></svg>