<?xml version="1.0" standalone="no"?><!DOCTYPE svg PUBLIC "-//W3C//DTD SVG 1.1//EN" "http://www.w3.org/Graphics/SVG/1.1/DTD/svg11.dtd"><svg t="1571814237781" class="icon" viewBox="0 0 1024 1024" version="1.1" xmlns="http://www.w3.org/2000/svg" p-id="3191" width="100" height="100" xmlns:xlink="http://www.w3.org/1999/xlink"><defs><style type="text/css"></style></defs><path d="M959.2832 508.7232c0-245.76-199.68-444.3648-447.232-444.3648S64.8192 262.7584 64.8192 508.7232s201.1136 449.8944 448.6144 449.8944c14.08 0 23.9104-16.7936 23.9104-30.72s-11.3152-40.96-25.6-40.96c-219.392 0-375.9616-159.0272-375.6032-375.6032S292.608 135.936 512 135.8848s375.6032 157.5936 375.6032 375.6032c0 13.9776 32.3584 22.3744 46.3872 22.3744a25.1392 25.1392 0 0 0 25.6-25.1392z m-558.08-220.8256c4.3008 0-4.1472-1.1776 0.0512 0z m0 0h-15.9232c-14.08 0-34.304 32.1536-34.304 44.7488v339.8144c0 13.9776 21.6064 46.6432 34.304 46.6432a61.7984 61.7984 0 0 0 15.9744 0l311.9104-199.2192c11.2128-7.0144 15.616-27.7504 8.5504-40.3456z m3.2768 366.6432V368.64l237.0048 127.0784z m317.44-175.0016c7.1168-1.5872-3.0208-4.1984 0 0z" fill="#ffffff" p-id="3192"></path><path d="M923.2896 636.672c-13.0048 0-12.3392 3.8912-17.8688 17.8688-1.536 13.7216 0 286.208 0 286.208 0 13.9264 10.5472 17.8688 24.6272 17.8688s29.0304-3.9424 29.0304-17.8688v-286.208c-0.9216-15.7184-20.6336-17.9712-35.7888-17.8688z m-284.416 50.3808c-13.2096-1.6896-19.2 5.12-18.176 21.0944-3.1232 14.1312-1.4336 238.848-1.4336 232.6016 0-15.616 3.7888 17.8688 17.8688 17.8688s35.84-3.9424 35.84-17.8688v-232.4992c1.1264-13.9776-13.824-18.5856-34.0992-21.1968z m159.232-104.0384c-14.08 0-35.84 3.8912-35.84 17.8688v339.8656c0 13.9264 13.7216 13.6704 27.7504 13.6704s25.9072 0.256 25.9072-13.6704v-339.8656c0.0512-13.9264-3.7376-17.8688-17.8176-17.8688z" fill="#ffffff" p-id="3193"></path></svg>