<?xml version="1.0" standalone="no"?><!DOCTYPE svg PUBLIC "-//W3C//DTD SVG 1.1//EN" "http://www.w3.org/Graphics/SVG/1.1/DTD/svg11.dtd"><svg t="1571814306361" class="icon" viewBox="0 0 1024 1024" version="1.1" xmlns="http://www.w3.org/2000/svg" p-id="6320" width="100" height="100" xmlns:xlink="http://www.w3.org/1999/xlink"><defs><style type="text/css"></style></defs><path d="M854.7 410c-19.6-298.5-130.1-262.5-130.1-262.5s-148.5 183.9-494.4 200v258s147 7.5 242.6 34.5 159.8 42.2 247 117c0 0 156.8-12.7 134.9-347zM97.8 351.9h94.5v251.7H97.8zM429.5 767.8c-37-44.7-48.3-102.3-48.3-102.3h-88.7c0 91.5 82.6 207 100.1 230.2 17.5 23.2 39.4 12.8 89.7 0 50.2-12.8 9.4-63.9 9.4-63.9s-25.2-19.3-62.2-64z" p-id="6321" fill="#ffffff"></path></svg>